<svg version="1.2" xmlns="http://www.w3.org/2000/svg" viewBox="0 0 427 345" width="427" height="345"><style></style><path fill-rule="evenodd" d="m13.6 6.6h39.2v74.5h33.3v3.9h-72.5zm117.6 18.6c29.4 0 39.2 4.9 39.2 32.4h-42.1v24.5h15.6c12.8 0 21.6-3 21.6-14.7h3.9c0 13.7-9.8 18.6-25.5 18.6h-17.6c-20.6 0-34.3-5.9-34.3-30.4 0-24.5 13.7-30.4 39.2-30.4zm-3 28.4h38.3c0-21.5-8.8-24.5-38.3-24.5zm88.2 31.4h-34.3v-58.8h32.4l1 3.9h0.9c3.5-2.4 8.9-4.9 15.7-4.9 10.8 0 17.7 3 17.7 10.8h-3.9c0-4.9-5.9-6.9-13.8-6.9-6.8 0-12.2 2.5-15.7 5.4zm86.3-59.8c22.5 0 36.3 5.9 36.3 30.4 0 25.5-13.8 30.4-36.3 30.4h-11.8c-22.5 0-36.2-4.9-36.2-30.4 0-24.5 13.7-30.4 36.2-30.4zm-12.7 56.9h13.7v-52.9h-13.7zm107.8 5.8c-6.4 16.7-10.8 17.7-33.8 17.7v-3.9c19.1 0 24.5-1 29.4-13.8l1.5-3.9h-28.5l-24.5-57.8h36.3l20.1 48.5 18.6-48.5h4.4zm-162.9 72.4l24.5 42.7h-45.6l-18.1-31.9-18.6 31.9h-4.4l20.5-35.8-24.5-42.6h45.6l18.1 31.8 18.7-31.8h4.4zm-105.6 160.6c-19.6 0-39.2-6.9-39.2-29.4v-50h39.2v75.5h7.8c17.7 0 33.3-2.5 33.3-25.5v-50h4v50c0 25.9-16.7 29.4-37.3 29.4zm54.9-59.8h65.7v6.4l-27.5 48.5h27.5v3.9h-65.7v-6.4l27.4-48.5h-27.4zm118.6 23.5v-20.5h-14.7c-12.8 0-21.6 2.9-21.6 11.7h-3.9c0-10.8 9.8-15.7 25.5-15.7h14.7c20.6 0 34.3 5.9 34.3 24.5v35.3h-32.4l-0.9-3.9h-1c-3.9 2-10.8 4.9-21.6 4.9-11.7 0-26.4-4.9-26.4-18.1 0-13.3 14.7-18.2 26.4-18.2zm0 27.5v-23.5h-10.8v27.4c4-0.5 7.9-2 10.8-3.9z"/></svg>